<mxfile host="app.diagrams.net" modified="2023-02-27T14:16:33.722Z" agent="5.0 (Windows NT 10.0; Win64; x64) AppleWebKit/537.36 (KHTML, like Gecko) Chrome/110.0.0.0 Safari/537.36" etag="5CnOog3AdDvy7evi3E-2" version="20.8.23" type="github">
  <diagram name="Page-1" id="fjar_nkzWUIpd5tAeYpq">
    <mxGraphModel dx="1432" dy="874" grid="1" gridSize="10" guides="1" tooltips="1" connect="1" arrows="1" fold="1" page="1" pageScale="1" pageWidth="850" pageHeight="1100" math="0" shadow="0">
      <root>
        <mxCell id="0" />
        <mxCell id="1" parent="0" />
        <mxCell id="jYEkmaBmbolBZdS-Ya5m-19" style="edgeStyle=orthogonalEdgeStyle;rounded=0;orthogonalLoop=1;jettySize=auto;html=1;entryX=0.5;entryY=0;entryDx=0;entryDy=0;fontSize=15;" edge="1" parent="1" source="jYEkmaBmbolBZdS-Ya5m-2" target="jYEkmaBmbolBZdS-Ya5m-16">
          <mxGeometry relative="1" as="geometry">
            <Array as="points">
              <mxPoint x="670" y="120" />
              <mxPoint x="670" y="120" />
            </Array>
          </mxGeometry>
        </mxCell>
        <mxCell id="jYEkmaBmbolBZdS-Ya5m-20" style="edgeStyle=orthogonalEdgeStyle;rounded=0;orthogonalLoop=1;jettySize=auto;html=1;entryX=0.5;entryY=0;entryDx=0;entryDy=0;fontSize=15;" edge="1" parent="1" source="jYEkmaBmbolBZdS-Ya5m-2" target="jYEkmaBmbolBZdS-Ya5m-15">
          <mxGeometry relative="1" as="geometry" />
        </mxCell>
        <mxCell id="jYEkmaBmbolBZdS-Ya5m-34" style="edgeStyle=orthogonalEdgeStyle;rounded=0;orthogonalLoop=1;jettySize=auto;html=1;entryX=0.5;entryY=0;entryDx=0;entryDy=0;fontSize=15;" edge="1" parent="1" source="jYEkmaBmbolBZdS-Ya5m-2" target="jYEkmaBmbolBZdS-Ya5m-13">
          <mxGeometry relative="1" as="geometry">
            <Array as="points">
              <mxPoint x="535" y="130" />
              <mxPoint x="535" y="130" />
            </Array>
          </mxGeometry>
        </mxCell>
        <mxCell id="jYEkmaBmbolBZdS-Ya5m-35" style="edgeStyle=orthogonalEdgeStyle;rounded=0;orthogonalLoop=1;jettySize=auto;html=1;entryX=0.5;entryY=0;entryDx=0;entryDy=0;fontSize=15;" edge="1" parent="1" source="jYEkmaBmbolBZdS-Ya5m-2" target="jYEkmaBmbolBZdS-Ya5m-14">
          <mxGeometry relative="1" as="geometry" />
        </mxCell>
        <mxCell id="jYEkmaBmbolBZdS-Ya5m-2" value="&lt;b&gt;&lt;font style=&quot;font-size: 15px;&quot;&gt;Tokeniser&lt;/font&gt;&lt;/b&gt;" style="rounded=1;whiteSpace=wrap;html=1;fontSize=15;fillColor=#fff2cc;strokeColor=#d6b656;" vertex="1" parent="1">
          <mxGeometry x="510" y="82" width="200" height="30" as="geometry" />
        </mxCell>
        <mxCell id="jYEkmaBmbolBZdS-Ya5m-12" style="edgeStyle=orthogonalEdgeStyle;rounded=0;orthogonalLoop=1;jettySize=auto;html=1;fontSize=15;" edge="1" parent="1" source="jYEkmaBmbolBZdS-Ya5m-3">
          <mxGeometry relative="1" as="geometry">
            <mxPoint x="550" y="80" as="targetPoint" />
          </mxGeometry>
        </mxCell>
        <mxCell id="jYEkmaBmbolBZdS-Ya5m-3" value="&lt;b&gt;&lt;font style=&quot;font-size: 15px;&quot;&gt;Text&lt;/font&gt;&lt;/b&gt;" style="rounded=1;whiteSpace=wrap;html=1;fontSize=15;fillColor=#f8cecc;strokeColor=#b85450;" vertex="1" parent="1">
          <mxGeometry x="510" y="30" width="80" height="30" as="geometry" />
        </mxCell>
        <mxCell id="jYEkmaBmbolBZdS-Ya5m-11" style="edgeStyle=orthogonalEdgeStyle;rounded=0;orthogonalLoop=1;jettySize=auto;html=1;fontSize=15;" edge="1" parent="1" source="jYEkmaBmbolBZdS-Ya5m-4">
          <mxGeometry relative="1" as="geometry">
            <mxPoint x="670" y="80" as="targetPoint" />
          </mxGeometry>
        </mxCell>
        <mxCell id="jYEkmaBmbolBZdS-Ya5m-4" value="&lt;b&gt;&lt;font style=&quot;font-size: 15px;&quot;&gt;Definitions&lt;/font&gt;&lt;/b&gt;" style="rounded=1;whiteSpace=wrap;html=1;fontSize=15;fillColor=#dae8fc;strokeColor=#6c8ebf;" vertex="1" parent="1">
          <mxGeometry x="630" y="30" width="80" height="30" as="geometry" />
        </mxCell>
        <mxCell id="jYEkmaBmbolBZdS-Ya5m-5" value="&lt;b&gt;&lt;font style=&quot;font-size: 15px;&quot;&gt;KG&lt;/font&gt;&lt;/b&gt;" style="rounded=1;whiteSpace=wrap;html=1;fontSize=15;fillColor=#d5e8d4;strokeColor=#82b366;" vertex="1" parent="1">
          <mxGeometry x="40" y="350" width="80" height="30" as="geometry" />
        </mxCell>
        <mxCell id="jYEkmaBmbolBZdS-Ya5m-13" value="&lt;b&gt;Attention&lt;br&gt;Mask&lt;/b&gt;" style="rounded=1;whiteSpace=wrap;html=1;fontSize=15;fillColor=#f8cecc;strokeColor=#b85450;" vertex="1" parent="1">
          <mxGeometry x="490" y="170" width="90" height="45" as="geometry" />
        </mxCell>
        <mxCell id="jYEkmaBmbolBZdS-Ya5m-14" value="&lt;b&gt;Tokens&lt;/b&gt;" style="rounded=1;whiteSpace=wrap;html=1;fontSize=15;fillColor=#f8cecc;strokeColor=#b85450;" vertex="1" parent="1">
          <mxGeometry x="400" y="170" width="80" height="30" as="geometry" />
        </mxCell>
        <mxCell id="jYEkmaBmbolBZdS-Ya5m-15" value="&lt;b&gt;Attention&lt;br&gt;Mask&lt;/b&gt;" style="rounded=1;whiteSpace=wrap;html=1;fontSize=15;fillColor=#dae8fc;strokeColor=#6c8ebf;" vertex="1" parent="1">
          <mxGeometry x="720" y="170" width="90" height="45" as="geometry" />
        </mxCell>
        <mxCell id="jYEkmaBmbolBZdS-Ya5m-16" value="&lt;b&gt;Tokens&lt;/b&gt;" style="rounded=1;whiteSpace=wrap;html=1;fontSize=15;fillColor=#dae8fc;strokeColor=#6c8ebf;" vertex="1" parent="1">
          <mxGeometry x="630" y="170" width="80" height="30" as="geometry" />
        </mxCell>
        <mxCell id="jYEkmaBmbolBZdS-Ya5m-21" value="&lt;b&gt;&lt;font style=&quot;font-size: 15px;&quot;&gt;BERT Encoder&lt;br&gt;(non-trainable)&lt;br&gt;&lt;/font&gt;&lt;/b&gt;" style="rounded=1;whiteSpace=wrap;html=1;fontSize=15;fillColor=#fff2cc;strokeColor=#d6b656;" vertex="1" parent="1">
          <mxGeometry x="400" y="250" width="180" height="50" as="geometry" />
        </mxCell>
        <mxCell id="jYEkmaBmbolBZdS-Ya5m-29" style="edgeStyle=orthogonalEdgeStyle;rounded=0;orthogonalLoop=1;jettySize=auto;html=1;entryX=0;entryY=0.5;entryDx=0;entryDy=0;entryPerimeter=0;fontSize=15;" edge="1" parent="1" source="jYEkmaBmbolBZdS-Ya5m-23" target="jYEkmaBmbolBZdS-Ya5m-28">
          <mxGeometry relative="1" as="geometry" />
        </mxCell>
        <mxCell id="jYEkmaBmbolBZdS-Ya5m-23" value="&lt;b&gt;&lt;font style=&quot;font-size: 15px;&quot;&gt;Positional Attention Mask&lt;/font&gt;&lt;/b&gt;" style="rounded=1;whiteSpace=wrap;html=1;fontSize=15;fillColor=#d5e8d4;strokeColor=#82b366;" vertex="1" parent="1">
          <mxGeometry x="110" y="30" width="120" height="50" as="geometry" />
        </mxCell>
        <mxCell id="jYEkmaBmbolBZdS-Ya5m-30" style="edgeStyle=orthogonalEdgeStyle;rounded=0;orthogonalLoop=1;jettySize=auto;html=1;entryX=1;entryY=0.5;entryDx=0;entryDy=0;entryPerimeter=0;fontSize=15;" edge="1" parent="1" source="jYEkmaBmbolBZdS-Ya5m-25" target="jYEkmaBmbolBZdS-Ya5m-28">
          <mxGeometry relative="1" as="geometry" />
        </mxCell>
        <mxCell id="jYEkmaBmbolBZdS-Ya5m-25" value="&lt;b&gt;&lt;font style=&quot;font-size: 15px;&quot;&gt;Positional Attention Mask&lt;/font&gt;&lt;/b&gt;" style="rounded=1;whiteSpace=wrap;html=1;fontSize=15;fillColor=#dae8fc;strokeColor=#6c8ebf;" vertex="1" parent="1">
          <mxGeometry x="250" y="30" width="120" height="50" as="geometry" />
        </mxCell>
        <mxCell id="jYEkmaBmbolBZdS-Ya5m-26" value="&lt;b&gt;&lt;font style=&quot;font-size: 15px;&quot;&gt;KG&lt;br&gt;Embeddings&lt;br&gt;&lt;/font&gt;&lt;/b&gt;" style="rounded=1;whiteSpace=wrap;html=1;fontSize=15;fillColor=#d5e8d4;strokeColor=#82b366;" vertex="1" parent="1">
          <mxGeometry x="20" y="240" width="100" height="50" as="geometry" />
        </mxCell>
        <mxCell id="jYEkmaBmbolBZdS-Ya5m-33" style="edgeStyle=orthogonalEdgeStyle;rounded=0;orthogonalLoop=1;jettySize=auto;html=1;entryX=0.5;entryY=0;entryDx=0;entryDy=0;fontSize=15;" edge="1" parent="1" source="jYEkmaBmbolBZdS-Ya5m-28" target="jYEkmaBmbolBZdS-Ya5m-31">
          <mxGeometry relative="1" as="geometry" />
        </mxCell>
        <mxCell id="jYEkmaBmbolBZdS-Ya5m-28" value="" style="verticalLabelPosition=bottom;verticalAlign=top;html=1;shape=mxgraph.flowchart.or;fontSize=15;" vertex="1" parent="1">
          <mxGeometry x="230" y="105" width="20" height="20" as="geometry" />
        </mxCell>
        <mxCell id="jYEkmaBmbolBZdS-Ya5m-31" value="&lt;b&gt;&lt;font style=&quot;font-size: 15px;&quot;&gt;Positional Attention Mask&lt;/font&gt;&lt;/b&gt;" style="rounded=1;whiteSpace=wrap;html=1;fontSize=15;fillColor=#b0e3e6;strokeColor=#0e8088;" vertex="1" parent="1">
          <mxGeometry x="180" y="160" width="120" height="50" as="geometry" />
        </mxCell>
        <mxCell id="jYEkmaBmbolBZdS-Ya5m-36" value="&lt;b&gt;&lt;font style=&quot;font-size: 15px;&quot;&gt;BERT Encoder&lt;br&gt;(non-trainable)&lt;br&gt;&lt;/font&gt;&lt;/b&gt;" style="rounded=1;whiteSpace=wrap;html=1;fontSize=15;fillColor=#fff2cc;strokeColor=#d6b656;" vertex="1" parent="1">
          <mxGeometry x="630" y="250" width="180" height="50" as="geometry" />
        </mxCell>
        <mxCell id="jYEkmaBmbolBZdS-Ya5m-37" value="&lt;b&gt;&lt;font style=&quot;font-size: 15px;&quot;&gt;BERT Encoder&lt;br&gt;(trainable)&lt;br&gt;&lt;/font&gt;&lt;/b&gt;" style="rounded=1;whiteSpace=wrap;html=1;fontSize=15;fillColor=#fff2cc;strokeColor=#d6b656;" vertex="1" parent="1">
          <mxGeometry x="190" y="250" width="180" height="50" as="geometry" />
        </mxCell>
      </root>
    </mxGraphModel>
  </diagram>
</mxfile>
